<svg xmlns="http://www.w3.org/2000/svg" viewBox="0 0 1200 800" fill="none">
  <rect width="1200" height="800" fill="#f8fafc" rx="16"/>
  <rect x="40" y="40" width="320" height="720" fill="#0f172a" rx="12"/>
  <rect x="56" y="56" width="288" height="40" fill="#1e293b" rx="6"/>
  <rect x="56" y="56" width="60" height="40" fill="#64748b" rx="6"/>
  <text x="72" y="80" font-family="system-ui" font-size="13" font-weight="600" fill="#94a3b8">TyPair</text>
  <rect x="56" y="112" width="288" height="1" fill="#1e293b"/>
  <text x="56" y="135" font-family="system-ui" font-size="11" font-weight="600" fill="#94a3b8" letter-spacing="1">SCALE</text>
  <rect x="56" y="148" width="80" height="28" fill="#1e293b" rx="4"/>
  <rect x="56" y="188" width="288" height="28" fill="#1e293b" rx="4"/>
  <rect x="56" y="228" width="288" height="6" fill="#1e293b" rx="3"/>
  <rect x="56" y="228" width="140" height="6" fill="#10b981" rx="3"/>
  <circle cx="196" cy="231" r="8" fill="#10b981"/>
  <rect x="56" y="260" width="288" height="1" fill="#1e293b"/>
  <text x="56" y="283" font-family="system-ui" font-size="11" font-weight="600" fill="#94a3b8" letter-spacing="1">FONTS</text>
  <rect x="56" y="296" width="200" height="28" fill="#1e293b" rx="4"/>
  <rect x="56" y="336" width="200" height="28" fill="#1e293b" rx="4"/>
  <rect x="268" y="296" width="16" height="28" fill="none" rx="4"/>
  <rect x="268" y="336" width="16" height="28" fill="#10b981" rx="4" opacity="0.2"/>
  <rect x="56" y="380" width="288" height="1" fill="#1e293b"/>
  <text x="56" y="403" font-family="system-ui" font-size="11" font-weight="600" fill="#94a3b8" letter-spacing="1">VIEWPORT</text>
  <rect x="56" y="416" width="80" height="24" fill="#10b981" rx="4"/>
  <rect x="140" y="416" width="60" height="24" fill="none" stroke="#334155" stroke-width="1" rx="4"/>
  <text x="68" y="432" font-family="system-ui" font-size="11" fill="#f8fafc" font-weight="500">Desktop</text>
  <text x="150" y="432" font-family="system-ui" font-size="11" fill="#94a3b8" font-weight="500">Mobile</text>

  <rect x="380" y="40" width="780" height="720" fill="#ffffff" rx="12"/>
  <rect x="380" y="40" width="780" height="720" rx="12" stroke="#e2e8f0" stroke-width="1"/>
  <rect x="396" y="56" width="748" height="36" fill="#f1f5f9" rx="6"/>
  <text x="412" y="79" font-family="system-ui" font-size="12" fill="#0f172a" font-weight="500">Full Layout</text>
  <text x="496" y="79" font-family="system-ui" font-size="12" fill="#64748b">Hierarchy Waterfall</text>
  <text x="1070" y="79" font-family="monospace" font-size="11" fill="#64748b">1200px</text>

  <rect x="396" y="108" width="748" height="48" fill="#ffffff" rx="6"/>
  <text x="412" y="133" font-family="system-ui" font-size="16" font-weight="600" fill="#0f172a">TyPair</text>
  <rect x="600" y="120" width="80" height="24" fill="#0f172a" rx="6"/>
  <text x="612" y="136" font-family="system-ui" font-size="11" fill="#ffffff" font-weight="500">Get Started</text>

  <text x="450" y="220" font-family="system-ui" font-size="36" font-weight="700" fill="#0f172a" text-anchor="middle">Design your type system.</text>
  <text x="450" y="260" font-family="system-ui" font-size="36" font-weight="700" fill="#0f172a" text-anchor="middle">Ship in seconds.</text>
  <text x="450" y="300" font-family="system-ui" font-size="14" fill="#64748b" text-anchor="middle">Compute scales, pair fonts, preview on real UI,</text>
  <text x="450" y="318" font-family="system-ui" font-size="14" fill="#64748b" text-anchor="middle">and export code — all in one workspace.</text>
  <rect x="480" y="340" width="160" height="40" fill="#0f172a" rx="8"/>
  <text x="525" y="365" font-family="system-ui" font-size="14" fill="#ffffff" font-weight="600" text-anchor="middle">Start Scaling</text>

  <rect x="396" y="420" width="232" height="120" fill="#ffffff" stroke="#e2e8f0" stroke-width="1" rx="8"/>
  <circle cx="428" cy="452" r="12" fill="#10b981"/>
  <text x="412" y="490" font-family="system-ui" font-size="14" font-weight="600" fill="#0f172a">Scale Calculator</text>
  <text x="412" y="510" font-family="system-ui" font-size="12" fill="#64748b">9 preset ratios</text>

  <rect x="644" y="420" width="232" height="120" fill="#ffffff" stroke="#e2e8f0" stroke-width="1" rx="8"/>
  <circle cx="676" cy="452" r="12" fill="#10b981"/>
  <text x="660" y="490" font-family="system-ui" font-size="14" font-weight="600" fill="#0f172a">Font Controller</text>
  <text x="660" y="510" font-family="system-ui" font-size="12" fill="#64748b">1500+ Google Fonts</text>

  <rect x="892" y="420" width="232" height="120" fill="#ffffff" stroke="#e2e8f0" stroke-width="1" rx="8"/>
  <circle cx="924" cy="452" r="12" fill="#10b981"/>
  <text x="908" y="490" font-family="system-ui" font-size="14" font-weight="600" fill="#0f172a">Lock &amp; Roll</text>
  <text x="908" y="510" font-family="system-ui" font-size="12" fill="#64748b">Spacebar exploration</text>

  <rect x="396" y="556" width="232" height="120" fill="#ffffff" stroke="#e2e8f0" stroke-width="1" rx="8"/>
  <circle cx="428" cy="588" r="12" fill="#10b981"/>
  <text x="412" y="626" font-family="system-ui" font-size="14" font-weight="600" fill="#0f172a">Live UI Preview</text>
  <text x="412" y="646" font-family="system-ui" font-size="12" fill="#64748b">Full shadcn page</text>

  <rect x="644" y="556" width="232" height="120" fill="#ffffff" stroke="#e2e8f0" stroke-width="1" rx="8"/>
  <circle cx="676" cy="588" r="12" fill="#10b981"/>
  <text x="660" y="626" font-family="system-ui" font-size="14" font-weight="600" fill="#0f172a">Dual Viewport</text>
  <text x="660" y="646" font-family="system-ui" font-size="12" fill="#64748b">Desktop + Mobile</text>

  <rect x="892" y="556" width="232" height="120" fill="#ffffff" stroke="#e2e8f0" stroke-width="1" rx="8"/>
  <circle cx="924" cy="588" r="12" fill="#10b981"/>
  <text x="908" y="626" font-family="system-ui" font-size="14" font-weight="600" fill="#0f172a">Code Export</text>
  <text x="908" y="646" font-family="system-ui" font-size="12" fill="#64748b">CSS/Tailwind/JSON</text>

  <rect x="396" y="696" width="748" height="48" fill="#0f172a" rx="6"/>
  <text x="550" y="725" font-family="system-ui" font-size="13" fill="#f8fafc">TyPair — Scale, Pair, Preview, Ship.</text>
</svg>