<svg xmlns="http://www.w3.org/2000/svg" viewBox="0 0 1200 630" fill="none">
  <rect width="1200" height="630" fill="#0f172a"/>
  <rect x="80" y="180" width="60" height="60" rx="16" fill="#10b981"/>
  <text x="110" y="220" font-family="system-ui" font-size="28" font-weight="700" fill="#fff" text-anchor="middle">T</text>
  <text x="110" y="232" font-family="system-ui" font-size="20" font-weight="300" fill="#f8fafc" text-anchor="middle">P</text>
  <text x="170" y="218" font-family="system-ui" font-size="48" font-weight="700" fill="#f8fafc">TyPair</text>
  <text x="170" y="250" font-family="system-ui" font-size="18" fill="#94a3b8">Scale, Pair, Preview, Ship.</text>
  <rect x="760" y="170" width="360" height="290" rx="16" fill="#1e293b"/>
  <rect x="780" y="190" width="320" height="40" rx="6" fill="#334155"/>
  <text x="800" y="215" font-family="system-ui" font-size="14" fill="#94a3b8">Scale preview</text>
  <rect x="780" y="245" width="320" height="20" rx="4" fill="#334155"/>
  <rect x="780" y="275" width="320" height="20" rx="4" fill="#334155"/>
  <rect x="780" y="305" width="220" height="20" rx="4" fill="#334155"/>
  <rect x="780" y="335" width="280" height="30" rx="4" fill="#334155"/>
  <rect x="780" y="375" width="320" height="20" rx="4" fill="#334155"/>
  <rect x="780" y="405" width="160" height="24" rx="4" fill="#10b981" opacity="0.3"/>
  <rect x="780" y="420" width="160" height="2" rx="1" fill="#10b981"/>
  <rect x="620" y="300" width="320" height="290" rx="16" fill="#1e293b"/>
  <rect x="640" y="320" width="280" height="40" rx="6" fill="#334155"/>
  <text x="660" y="345" font-family="system-ui" font-size="14" fill="#94a3b8">UI Preview</text>
  <rect x="640" y="375" width="280" height="50" rx="4" fill="#334155"/>
  <rect x="640" y="435" width="280" height="50" rx="4" fill="#334155"/>
  <rect x="640" y="495" width="100" height="34" rx="6" fill="#10b981"/>
  <rect x="750" y="495" width="100" height="34" rx="6" fill="#334155"/>
  <text x="675" y="516" font-family="system-ui" font-size="12" font-weight="600" fill="#fff">Get Started</text>
</svg>